<svg fill="none" height="30" viewBox="0 0 30 30" width="30" xmlns="http://www.w3.org/2000/svg"><path d="m14.071 18.1525c.3415-.2717 1.5562-1.3143 1.9602-1.5145 2.5481-1.2682 6.2503-2.1269 5.4967-6.3536-.5734-3.19764-3.6651-5.03741-7.428-2.29633 3.1705-.43843 4.4586 2.75373 2.155 4.59173-.3415.2718-1.5562 1.3144-1.9593 1.5146-2.549 1.2681-6.25575 2.1269-5.49756 6.3536.5743 3.1976 3.66596 5.0374 7.42796 2.2963-3.1714.4384-4.4586-2.7538-2.155-4.5918z" fill="#fff"/><g fill="#a51ee1"><path d="m18.0132 14.5908s3.2774 2.2827 5.3073 5.1144c-1.1167.1353-2.2396.2139-3.3643.2355 0 0 .9774 3.4032-2.3262 5.0347-3.3036 1.6314-6.4088.2454-7.494-.5671-1.08521-.8125-3.52646-3.7538-.79987-7.2467 0 0-.72468 1.1323-.45293 3.1088.22013 1.6305 1.2039 3.0364 3.3009 3.3734 1.9267.3098 3.4422-1.54 3.6134-4.0238 0 0-1.963-.327-3.4268-1.0426-.0009-.0009 3.4078-2.6858 5.6425-3.9866z"/><path d="m12.3064 16.1434s-3.2764-2.2828-5.3064-5.1144c1.11643-.1353 2.239-.2139 3.3634-.2355 0 0-.97741-3.4033 2.3262-5.03473 3.3036-1.63142 6.4088-.24548 7.494.56706 1.0853.81255 3.5265 3.75377.8008 7.24677 0 0 .7247-1.1323.4529-3.1089-.2201-1.6305-1.2047-3.03637-3.3009-3.37334-1.9267-.3098-3.4422 1.53994-3.6143 4.02374 0 0 1.963.327 3.4268 1.0436.0037 0-3.4041 2.6831-5.6425 3.9857z"/></g></svg>